<?xml version="1.0" encoding="UTF-8"?>
<svg width="250px" height="311px" viewBox="0 0 250 311" version="1.1" xmlns="http://www.w3.org/2000/svg" xmlns:xlink="http://www.w3.org/1999/xlink">
    <title>Page 1</title>
    <g id="Page-1" stroke="none" stroke-width="1" fill="none" fill-rule="evenodd">
        <g id="Artboard" transform="translate(-131, -100)" fill="#231F20">
            <g id="Page-1" transform="translate(131.0005, 100.0003)">
                <path d="M136.923334,226.311502 C136.923334,239.008474 136.913334,250.258577 136.927334,261.508679 C136.953334,283.851443 156.351334,297.698337 177.639334,290.04747 C190.119334,285.565365 202.815334,281.051373 214.217334,274.488647 C220.437334,270.907348 224.725334,263.380043 228.799334,256.946857 C231.191334,253.174237 229.289334,249.588951 224.103334,248.299524 C195.463334,241.190735 166.869334,233.886638 136.923334,226.311502 M118.251334,277.400321 C118.251334,257.359394 117.363334,239.118085 118.449334,220.996352 C120.299334,190.139781 132.173334,175.838499 161.821334,166.352142 C176.371334,161.696652 191.085334,157.553346 205.583334,152.754365 C221.263334,147.564769 229.433334,136.631543 229.465334,119.920805 C229.503334,98.6721615 229.319334,77.4135529 229.911334,56.1768665 C230.109334,49.1139145 227.639334,46.391569 221.021334,44.7533786 C194.895334,38.296278 168.905334,31.3050716 142.857334,24.5410594 C139.181334,23.5864449 135.463334,22.7912649 130.869334,21.7130885 C130.869334,39.5757406 130.961334,56.1409937 130.849334,72.7042539 C130.619334,107.283622 117.627334,124.375009 84.2713336,134.309777 C70.9013336,138.291655 57.4013336,141.918792 44.2433336,146.510508 C26.4553336,152.716499 19.3293336,162.964157 19.0333336,181.679784 C18.7893336,196.951624 19.0473336,212.229443 18.9182467,227.503276 C18.8353336,237.330425 23.6233336,244.690324 32.2613336,247.825206 C60.3073336,258.007097 88.6773336,267.306119 118.251334,277.400321 M139.333334,207.362702 C171.741334,215.693159 203.527334,223.874146 235.319334,232.029225 C247.781334,235.227881 249.951334,237.868517 248.817334,250.778732 C247.091334,270.478868 238.131334,285.282369 219.079334,293.07872 C164.809334,315.287957 174.307334,316.344211 117.669334,297.106436 C88.7393336,287.279287 59.7933336,277.50794 30.8573336,267.698727 C10.1673336,260.683605 0.0753335852,247.103765 0.00933358518,225.281156 C-0.0406664148,209.028794 0.0893335852,192.750523 0.915333585,176.524068 C2.06133359,154.00194 13.9213336,138.459062 34.8153336,130.561071 C49.3813336,125.054599 64.5353336,121.078699 79.4493336,116.500934 C104.717334,108.744441 111.433334,99.9974615 111.719334,73.43566 C111.929334,53.8511145 111.689334,34.2625831 111.813334,14.6760446 C111.899334,1.20382242 116.159334,-2.14629675 129.047334,1.21179415 C165.047334,10.5925264 200.973334,20.2423045 237.011334,29.4775527 C245.401334,31.6279266 249.181334,35.7891692 249.009334,44.7673292 C248.567334,67.9969478 249.089334,91.2445029 248.773334,114.478107 C248.345334,145.928572 235.431334,162.994051 205.489334,172.396705 C190.601334,177.07611 175.547334,181.255289 160.793334,186.317337 C150.829334,189.733223 142.585334,195.612374 139.333334,207.362702" id="Fill-3"></path>
            </g>
        </g>
    </g>
</svg>