
<svg width="200px" height="41px" viewBox="0 0 200 41" version="1.1" xmlns="http://www.w3.org/2000/svg" xmlns:xlink="http://www.w3.org/1999/xlink">
    <g id="Page-1" stroke="none" stroke-width="1" fill="none" fill-rule="evenodd">
        <g id="Artboard" transform="translate(-80.000000, -183.000000)" fill="#FFFFFF">
            <g id="Group-2" transform="translate(80.000000, 183.432902)">
                <g id="Page-1">
                    <path d="M17.5780008,29.5382777 C17.5780008,31.195492 17.576717,32.6638604 17.5785143,34.1322288 C17.5818521,37.0484163 20.0721367,38.8557189 22.8050564,37.8571244 C24.4072191,37.2721181 26.0371114,36.6829499 27.5008821,35.82638 C28.2993959,35.3589472 28.8498825,34.37648 29.3728962,33.5368178 C29.6799774,33.0444136 29.4358016,32.5764606 28.7700312,32.408164 C25.0932733,31.4803217 21.4224209,30.5269877 17.5780008,29.5382777 M15.180919,36.206413 C15.180919,33.5906623 15.066919,31.2097985 15.2063379,28.8445419 C15.443838,24.8171286 16.9682033,22.9505189 20.7743666,21.7123553 C22.6422726,21.1047187 24.5312326,20.5639326 26.3924629,19.9375674 C28.4054365,19.2602191 29.4542881,17.8332095 29.4583962,15.6521167 C29.4632746,12.8787343 29.439653,10.1040513 29.515653,7.33222952 C29.5410719,6.4103699 29.2239773,6.05504816 28.3743689,5.84123083 C25.0203544,4.99844719 21.6837993,4.08595183 18.3397983,3.20310996 C17.8678793,3.07851324 17.3905683,2.974726 16.8007979,2.83400194 C16.8007979,5.16544321 16.8126087,7.32754739 16.7982303,9.48939146 C16.7687033,14.0027059 15.1008109,16.2334814 10.8186204,17.5301716 C9.10220096,18.0498882 7.36909233,18.5233037 5.67988912,19.1226165 C3.39629384,19.9326252 2.48146924,21.270154 2.44346923,23.712926 C2.4121449,25.7062133 2.44526653,27.700281 2.42883409,29.6938285 C2.41805031,30.9764723 3.03272617,31.9370896 4.14165893,32.3462558 C7.74216001,33.6752008 11.3842557,34.8889133 15.180919,36.206413 M17.8873928,27.0650719 C22.0478805,28.1523668 26.1285169,29.2201528 30.2099235,30.2845574 C31.8097753,30.7020474 32.0883565,31.0467043 31.9427754,32.7317513 C31.7211942,35.3030218 30.5709236,37.2351813 28.125058,38.2527645 C21.1579613,41.151524 22.3772995,41.2893867 15.1062028,38.7784638 C11.3922152,37.4958199 7.6761735,36.2204594 3.96141563,34.9401566 C1.30526619,34.0245398 0.0096712064,32.252093 0.00119823089,29.4037964 C-0.00522068995,27.2825308 0.0114685042,25.1578837 0.117509077,23.0399997 C0.264630742,20.1004016 1.78719877,18.0717381 4.46953741,17.0408889 C6.33949743,16.3221817 8.28494395,15.8032455 10.1995797,15.2057535 C13.4434455,14.1933727 14.3056349,13.051713 14.3423512,9.58485491 C14.3693106,7.02867135 14.3384998,4.47196754 14.3544187,1.91552385 C14.3654593,0.157123436 14.9123513,-0.280135603 16.5668924,0.15816391 C21.1885154,1.38254124 25.8006384,2.64203456 30.4271398,3.84742325 C31.5042347,4.12809101 31.9895051,4.67121824 31.967424,5.84305165 C31.9106808,8.87499179 31.9776943,11.909273 31.9371267,14.9417333 C31.8821807,19.0466619 30.2243019,21.2740558 26.3803953,22.5012944 C24.4690974,23.1120525 22.5364888,23.6575208 20.6423936,24.3182215 C19.3632311,24.7640644 18.3048794,25.5314137 17.8873928,27.0650719" id="Fill-3"></path>
                </g>
                <path d="M54.3377942,34.2617158 C58.3107684,34.2617158 60.4594177,31.4618012 60.4594177,31.4618012 L60.9459043,32.9226262 C61.1080665,33.4501463 61.3918504,33.8153526 61.8377965,33.8153526 L63.3377969,33.8153526 C63.8242836,33.8153526 64.2296891,33.4095679 64.2296891,32.9226262 L64.2296891,6.30314909 C64.2296891,5.85678591 63.8242836,5.41042272 63.3377969,5.41042272 L60.0540122,5.41042272 C59.6080661,5.41042272 59.16212,5.85678591 59.16212,6.30314909 L59.16212,15.4333051 C58.3107684,15.1086773 56.5269841,14.6623142 54.6621186,14.6623142 C49.0675224,14.6623142 45.3783321,18.9636321 45.3783321,24.4417257 C45.3783321,30.1227117 49.2296846,34.2617158 54.3377942,34.2617158 Z M55.0269836,29.63577 C52.1080634,29.63577 50.6080634,27.0793263 50.6080634,24.4417257 C50.6080634,21.8041251 52.1891449,19.2882599 55.2702269,19.2882599 C57.621579,19.2882599 59.16212,20.3433001 59.16212,20.3433001 L59.16212,27.0387479 C58.7567145,28.0937881 57.4594168,29.63577 55.0269836,29.63577 Z M73.4323945,33.8153526 C74.0405028,33.8153526 74.4864489,33.6124602 74.4864489,32.9226262 L74.4864489,21.2360265 C74.8107733,20.586771 76.0269899,19.2882599 78.0540175,19.2882599 C78.9053692,19.2882599 79.3513152,19.4505738 79.7972613,19.6534661 C80.2432074,19.8563585 80.6891535,19.6940446 80.8918562,19.2476814 L82.1080728,16.4883454 C82.6351,15.2709912 80.8107751,14.6623142 78.5810447,14.6623142 C75.7026655,14.6623142 73.9594217,16.5695023 73.3107729,17.5028071 L72.6215835,15.6767759 C72.4594213,15.2709912 72.2567185,15.0680989 71.8107724,15.0680989 L70.310772,15.0680989 C69.8648259,15.0680989 69.4188798,15.4333051 69.4188798,15.9608252 L69.4188798,32.9226262 C69.4188798,33.4095679 69.8648259,33.8153526 70.310772,33.8153526 L73.4323945,33.8153526 Z M93.054022,34.2617158 C98.3648344,34.2617158 102.662133,29.7575054 102.662133,24.4011472 C102.662133,19.125946 98.3648344,14.6623142 93.054022,14.6623142 C87.7837502,14.6623142 83.4864516,19.125946 83.4864516,24.4011472 C83.4864516,29.7575054 87.7837502,34.2617158 93.054022,34.2617158 Z M93.054022,29.63577 C90.337805,29.63577 88.1891557,27.2822187 88.1891557,24.4011472 C88.1891557,21.5606543 90.337805,19.2882599 93.054022,19.2882599 C95.7702391,19.2882599 97.9594289,21.5606543 97.9594289,24.4011472 C97.9594289,27.2822187 95.7702391,29.63577 93.054022,29.63577 Z M109.148621,11.8623996 C110.972946,11.8623996 112.391866,10.4015747 112.391866,8.61612195 C112.391866,6.83066922 110.972946,5.41042272 109.148621,5.41042272 C107.324297,5.41042272 105.945918,6.83066922 105.945918,8.61612195 C105.945918,10.4015747 107.324297,11.8623996 109.148621,11.8623996 Z M110.851325,33.8153526 C111.297271,33.8153526 111.743217,33.4095679 111.743217,32.9226262 L111.743217,15.9608252 C111.743217,15.4333051 111.297271,15.0680989 110.851325,15.0680989 L107.56754,15.0680989 C107.121594,15.0680989 106.675648,15.4333051 106.675648,15.9608252 L106.675648,32.9226262 C106.675648,33.4095679 107.121594,33.8153526 107.56754,33.8153526 L110.851325,33.8153526 Z M124.756734,34.2617158 C128.729708,34.2617158 130.878358,31.4618012 130.878358,31.4618012 L131.364844,32.9226262 C131.527007,33.4501463 131.81079,33.8153526 132.256736,33.8153526 L133.756737,33.8153526 C134.243224,33.8153526 134.648629,33.4095679 134.648629,32.9226262 L134.648629,6.30314909 C134.648629,5.85678591 134.243224,5.41042272 133.756737,5.41042272 L130.472952,5.41042272 C130.027006,5.41042272 129.58106,5.85678591 129.58106,6.30314909 L129.58106,15.4333051 C128.729708,15.1086773 126.945924,14.6623142 125.081059,14.6623142 C119.486462,14.6623142 115.797272,18.9636321 115.797272,24.4417257 C115.797272,30.1227117 119.648625,34.2617158 124.756734,34.2617158 Z M125.445924,29.63577 C122.527003,29.63577 121.027003,27.0793263 121.027003,24.4417257 C121.027003,21.8041251 122.608085,19.2882599 125.689167,19.2882599 C128.040519,19.2882599 129.58106,20.3433001 129.58106,20.3433001 L129.58106,27.0387479 C129.175654,28.0937881 127.878357,29.63577 125.445924,29.63577 Z M145.391876,34.2617158 C150.09458,34.2617158 152.608094,31.6241151 152.608094,28.6618867 C152.608094,24.9286674 150.013499,23.6301563 146.405389,22.1693313 C144.662146,21.4389189 143.729713,20.9925557 143.729713,20.1404078 C143.729713,19.5317307 144.25674,18.9230536 145.513497,18.9230536 C147.054038,18.9230536 148.351336,19.4505738 149.243228,19.8563585 C149.648634,20.0186724 150.13512,19.9375154 150.418904,19.4911522 L151.472958,17.3404933 C151.716202,16.8535516 151.472958,16.3666099 151.067553,16.0419822 C150.054039,15.3927266 148.270255,14.6623142 145.513497,14.6623142 C140.932415,14.6623142 138.783765,17.2999148 138.783765,20.1404078 C138.783765,22.9809008 140.405388,24.6851965 144.013497,26.0648646 C146.48647,27.0387479 147.540525,27.8097388 147.540525,28.6618867 C147.540525,29.4734562 146.891876,30.0009763 145.472957,30.0009763 C143.52701,30.0009763 142.189172,29.3111423 141.33782,28.7836221 C140.891874,28.4995728 140.445928,28.6618867 140.243225,29.1082499 L139.027009,31.5429582 C138.824306,31.9487429 139.027009,32.3951061 139.270252,32.55742 C140.324306,33.2878324 142.270253,34.2617158 145.391876,34.2617158 Z M159.054042,11.8623996 C160.878367,11.8623996 162.297286,10.4015747 162.297286,8.61612195 C162.297286,6.83066922 160.878367,5.41042272 159.054042,5.41042272 C157.229717,5.41042272 155.851338,6.83066922 155.851338,8.61612195 C155.851338,10.4015747 157.229717,11.8623996 159.054042,11.8623996 Z M160.756745,33.8153526 C161.202691,33.8153526 161.648637,33.4095679 161.648637,32.9226262 L161.648637,15.9608252 C161.648637,15.4333051 161.202691,15.0680989 160.756745,15.0680989 L157.47296,15.0680989 C157.027014,15.0680989 156.581068,15.4333051 156.581068,15.9608252 L156.581068,32.9226262 C156.581068,33.4095679 157.027014,33.8153526 157.47296,33.8153526 L160.756745,33.8153526 Z M177.98648,33.8153526 C178.472967,33.8153526 178.878372,33.4095679 178.878372,32.9226262 L178.878372,30.1227117 C178.878372,29.63577 178.472967,29.2299853 177.98648,29.2299853 L172.635127,29.2299853 L172.635127,29.1488284 L179.689183,16.3666099 C179.770264,16.2042961 179.810805,16.0825607 179.810805,15.9202468 C179.810805,15.4333051 179.44594,15.0680989 178.878372,15.0680989 L166.797287,15.0680989 C166.351341,15.0680989 165.945936,15.4333051 165.945936,15.9608252 L165.945936,18.8013182 C165.945936,19.2476814 166.351341,19.6940446 166.797287,19.6940446 L172.432424,19.6940446 L172.432424,19.7752015 L165.743233,32.0704783 C165.54053,32.4356845 165.54053,32.5979984 165.54053,32.9226262 C165.54053,33.4095679 165.945936,33.8153526 166.432422,33.8153526 L177.98648,33.8153526 Z M191.445943,34.2617158 C194.486485,34.2617158 196.797296,33.0849401 198.418918,31.7052721 C198.864865,31.2994874 198.824324,30.8531242 198.5,30.4879179 L196.918918,28.3778374 C196.635134,27.9720527 196.148647,28.0126312 195.702701,28.3778374 C194.85135,29.0676714 193.554052,29.7575054 191.689187,29.7575054 C188.97297,29.7575054 187.067564,27.7285819 187.027023,25.415609 L199.027027,25.415609 C199.432432,25.415609 199.878378,25.0504028 199.918919,24.5634611 C199.959454,24.2794118 200,23.6301563 200,23.346107 C200,18.2737981 196.270269,14.6623142 191.405403,14.6623142 C185.851347,14.6623142 181.959454,19.1665245 181.959454,24.4417257 C181.959454,29.7980839 185.851347,34.2617158 191.445943,34.2617158 Z M194.89189,22.0881744 L187.310807,22.0881744 C187.55405,20.2215647 189.01351,18.8418967 191.283781,18.8418967 C193.351349,18.8418967 194.810807,20.2621432 194.89189,22.0881744 Z" id="droidsize" fill-rule="nonzero"></path>
            </g>
        </g>
    </g>
</svg>