<svg xmlns="http://www.w3.org/2000/svg" xmlns:xlink="http://www.w3.org/1999/xlink" width="708" zoomAndPan="magnify" viewBox="0 0 531 530.249967" height="707" preserveAspectRatio="xMidYMid meet" version="1.0"><defs><g/></defs><g fill="#ffffff" fill-opacity="1"><g transform="translate(248.234879, 484.668453)"><g><path d="M -24.078125 23.796875 L -23.734375 21.15625 L -15.4375 22.234375 L -12.359375 -1.59375 L -9.265625 -1.203125 L -12.34375 22.625 L -4.046875 23.703125 L -4.390625 26.34375 Z M -24.078125 23.796875 "/></g></g></g><g fill="#ffffff" fill-opacity="1"><g transform="translate(217.118449, 480.02238)"><g><path d="M -3.875 -1.109375 L -11.203125 24.546875 L -20.53125 21.890625 C -22.25 21.398438 -23.613281 20.703125 -24.625 19.796875 C -25.632812 18.898438 -26.28125 17.847656 -26.5625 16.640625 C -26.851562 15.441406 -26.800781 14.132812 -26.40625 12.71875 C -25.945312 11.125 -25.171875 9.921875 -24.078125 9.109375 C -22.984375 8.304688 -21.523438 7.890625 -19.703125 7.859375 L -19.59375 7.484375 C -20.320312 6.910156 -20.847656 6.195312 -21.171875 5.34375 C -21.503906 4.5 -21.691406 3.316406 -21.734375 1.796875 L -22 -6.28125 L -18.890625 -5.390625 L -18.5625 3.171875 C -18.519531 4.191406 -18.375 5.019531 -18.125 5.65625 C -17.882812 6.300781 -17.492188 6.828125 -16.953125 7.234375 C -16.410156 7.640625 -15.675781 7.976562 -14.75 8.25 L -10.1875 9.546875 L -6.890625 -1.96875 Z M -17.140625 10.328125 C -18.742188 9.867188 -20.046875 9.894531 -21.046875 10.40625 C -22.046875 10.925781 -22.765625 11.945312 -23.203125 13.46875 C -23.640625 15 -23.566406 16.25 -22.984375 17.21875 C -22.410156 18.1875 -21.320312 18.898438 -19.71875 19.359375 L -13.484375 21.140625 L -10.90625 12.109375 Z M -17.140625 10.328125 "/></g></g></g><g fill="#ffffff" fill-opacity="1"><g transform="translate(184.394104, 469.990439)"><g><path d="M -12.28125 -6.21875 C -9.320312 -4.832031 -7.4375 -3.023438 -6.625 -0.796875 C -5.8125 1.421875 -6.101562 4.007812 -7.5 6.96875 L -14.828125 22.515625 L -17.65625 21.1875 L -10.34375 5.671875 C -9.34375 3.554688 -9.101562 1.726562 -9.625 0.1875 C -10.144531 -1.34375 -11.445312 -2.597656 -13.53125 -3.578125 C -17.644531 -5.515625 -20.695312 -4.367188 -22.6875 -0.140625 L -30 15.375 L -32.828125 14.03125 L -25.5 -1.515625 C -24.101562 -4.472656 -22.289062 -6.34375 -20.0625 -7.125 C -17.832031 -7.914062 -15.238281 -7.613281 -12.28125 -6.21875 Z M -12.28125 -6.21875 "/></g></g></g><g fill="#ffffff" fill-opacity="1"><g transform="translate(151.269722, 453.359637)"><g><path d="M -9.421875 -6.90625 C -8.023438 -5.945312 -6.90625 -4.90625 -6.0625 -3.78125 C -5.226562 -2.65625 -4.648438 -1.535156 -4.328125 -0.421875 C -4.015625 0.691406 -3.929688 1.742188 -4.078125 2.734375 L -6.671875 3.46875 L -7.046875 3.21875 C -6.835938 -0.0078125 -8.160156 -2.597656 -11.015625 -4.546875 C -12.671875 -5.671875 -14.140625 -6.160156 -15.421875 -6.015625 C -16.710938 -5.878906 -17.78125 -5.191406 -18.625 -3.953125 C -19.113281 -3.234375 -19.394531 -2.53125 -19.46875 -1.84375 C -19.550781 -1.15625 -19.40625 -0.425781 -19.03125 0.34375 C -18.65625 1.113281 -18.03125 1.992188 -17.15625 2.984375 L -15.015625 5.375 C -13.410156 7.144531 -12.492188 8.847656 -12.265625 10.484375 C -12.046875 12.117188 -12.460938 13.707031 -13.515625 15.25 C -14.265625 16.34375 -15.210938 17.128906 -16.359375 17.609375 C -17.515625 18.085938 -18.800781 18.195312 -20.21875 17.9375 C -21.632812 17.675781 -23.09375 17.03125 -24.59375 16 C -26.257812 14.875 -27.5 13.6875 -28.3125 12.4375 C -29.132812 11.195312 -29.570312 9.875 -29.625 8.46875 L -27.203125 7.625 L -26.828125 7.875 C -26.710938 9.082031 -26.347656 10.164062 -25.734375 11.125 C -25.117188 12.082031 -24.222656 12.957031 -23.046875 13.75 C -21.523438 14.789062 -20.171875 15.28125 -18.984375 15.21875 C -17.796875 15.15625 -16.847656 14.597656 -16.140625 13.546875 C -15.453125 12.546875 -15.195312 11.554688 -15.375 10.578125 C -15.550781 9.609375 -16.207031 8.492188 -17.34375 7.234375 L -19.5625 4.8125 C -21.351562 2.851562 -22.375 1.03125 -22.625 -0.65625 C -22.882812 -2.351562 -22.460938 -4.015625 -21.359375 -5.640625 C -20.515625 -6.890625 -19.484375 -7.804688 -18.265625 -8.390625 C -17.054688 -8.972656 -15.691406 -9.148438 -14.171875 -8.921875 C -12.660156 -8.703125 -11.078125 -8.03125 -9.421875 -6.90625 Z M -9.421875 -6.90625 "/></g></g></g><g fill="#ffffff" fill-opacity="1"><g transform="translate(124.765304, 434.403974)"><g><path d="M -33.390625 5.546875 L -31.59375 3.59375 L -25.4375 9.25 L -9.171875 -8.4375 L -6.875 -6.328125 L -23.140625 11.359375 L -16.984375 17.015625 L -18.78125 18.96875 Z M -33.390625 5.546875 "/></g></g></g><g fill="#ffffff" fill-opacity="1"><g transform="translate(102.027915, 412.573247)"><g><path d="M -14.28125 2.375 L -6.53125 -3.921875 L -15.125 -14.484375 L -13.109375 -16.125 L -2.546875 -3.125 L -23.265625 13.703125 L -33.640625 0.9375 L -31.625 -0.703125 L -23.21875 9.625 L -16.296875 4 L -23.71875 -5.125 L -21.703125 -6.75 Z M -14.28125 2.375 "/></g></g></g><g fill="#ffffff" fill-opacity="1"><g transform="translate(82.200383, 387.330648)"><g><path d="M -29.4375 2.375 C -30.789062 0.03125 -31.53125 -2.222656 -31.65625 -4.390625 C -31.789062 -6.554688 -31.265625 -8.585938 -30.078125 -10.484375 C -28.890625 -12.390625 -27 -14.09375 -24.40625 -15.59375 C -21.8125 -17.09375 -19.390625 -17.878906 -17.140625 -17.953125 C -14.898438 -18.035156 -12.875 -17.476562 -11.0625 -16.28125 C -9.257812 -15.082031 -7.679688 -13.3125 -6.328125 -10.96875 L -2.015625 -3.484375 L -25.125 9.859375 Z M -8.484375 -9.375 C -9.597656 -11.300781 -10.816406 -12.722656 -12.140625 -13.640625 C -13.472656 -14.554688 -15.007812 -14.953125 -16.75 -14.828125 C -18.488281 -14.703125 -20.484375 -13.988281 -22.734375 -12.6875 C -24.984375 -11.382812 -26.59375 -10.015625 -27.5625 -8.578125 C -28.539062 -7.140625 -28.96875 -5.613281 -28.84375 -4 C -28.71875 -2.382812 -28.097656 -0.613281 -26.984375 1.3125 L -24.390625 5.796875 L -5.890625 -4.890625 Z M -8.484375 -9.375 "/></g></g></g><g fill="#ffffff" fill-opacity="1"><g transform="translate(64.193186, 353.58019)"><g/></g></g><g fill="#ffffff" fill-opacity="1"><g transform="translate(56.950354, 335.823982)"><g><path d="M -1.0625 -3.890625 L -26.796875 3.1875 L -29.484375 -6.578125 C -29.921875 -8.148438 -30.035156 -9.554688 -29.828125 -10.796875 C -29.628906 -12.046875 -29.140625 -13.078125 -28.359375 -13.890625 C -27.585938 -14.703125 -26.554688 -15.285156 -25.265625 -15.640625 C -24.148438 -15.953125 -23.054688 -15.925781 -21.984375 -15.5625 C -20.921875 -15.207031 -19.976562 -14.535156 -19.15625 -13.546875 L -18.796875 -13.640625 C -18.835938 -15.472656 -18.421875 -16.984375 -17.546875 -18.171875 C -16.679688 -19.367188 -15.398438 -20.203125 -13.703125 -20.671875 C -11.316406 -21.328125 -9.285156 -21.128906 -7.609375 -20.078125 C -5.929688 -19.035156 -4.710938 -17.140625 -3.953125 -14.390625 Z M -18.65625 -9.390625 C -19.039062 -10.816406 -19.710938 -11.816406 -20.671875 -12.390625 C -21.628906 -12.972656 -22.765625 -13.082031 -24.078125 -12.71875 C -25.453125 -12.34375 -26.375 -11.679688 -26.84375 -10.734375 C -27.320312 -9.796875 -27.359375 -8.585938 -26.953125 -7.109375 L -25.140625 -0.53125 L -16.84375 -2.8125 Z M -6.390625 -13.453125 C -7.398438 -17.117188 -9.554688 -18.5 -12.859375 -17.59375 C -16.171875 -16.675781 -17.320312 -14.382812 -16.3125 -10.71875 L -14.328125 -3.5 L -4.40625 -6.234375 Z M -6.390625 -13.453125 "/></g></g></g><g fill="#ffffff" fill-opacity="1"><g transform="translate(48.403937, 301.583432)"><g><path d="M -1.484375 -12.953125 L -1.125 -9.84375 L -11.546875 -8.640625 L -26.59375 2.359375 L -26.984375 -1.046875 L -15.390625 -9.609375 L -15.4375 -10.078125 L -28.671875 -15.75 L -29.0625 -19.09375 L -11.90625 -11.75 Z M -1.484375 -12.953125 "/></g></g></g><g fill="#ffffff" fill-opacity="1"><g transform="translate(45.646262, 268.706657)"><g/></g></g><g fill="#ffffff" fill-opacity="1"><g transform="translate(45.968773, 249.41425)"><g><path d="M -24.15625 -22.75 L -21.578125 -22.453125 L -23.0625 -10 L -13.421875 -8.84375 L -12.078125 -20.046875 L -9.5 -19.734375 L -10.84375 -8.53125 L 0.859375 -7.125 L 0.484375 -4 L -26.015625 -7.171875 Z M -24.15625 -22.75 "/></g></g></g><g fill="#ffffff" fill-opacity="1"><g transform="translate(50.057732, 218.953289)"><g><path d="M 4.375 -13.96875 C 3.75 -11.75 2.707031 -9.910156 1.25 -8.453125 C -0.207031 -6.992188 -2.0625 -6.046875 -4.3125 -5.609375 C -6.570312 -5.179688 -9.164062 -5.382812 -12.09375 -6.21875 C -15.03125 -7.050781 -17.34375 -8.242188 -19.03125 -9.796875 C -20.726562 -11.359375 -21.8125 -13.140625 -22.28125 -15.140625 C -22.75 -17.148438 -22.671875 -19.265625 -22.046875 -21.484375 C -21.410156 -23.710938 -20.363281 -25.554688 -18.90625 -27.015625 C -17.445312 -28.472656 -15.585938 -29.421875 -13.328125 -29.859375 C -11.078125 -30.296875 -8.484375 -30.097656 -5.546875 -29.265625 C -2.617188 -28.429688 -0.3125 -27.234375 1.375 -25.671875 C 3.070312 -24.109375 4.15625 -22.320312 4.625 -20.3125 C 5.09375 -18.3125 5.007812 -16.195312 4.375 -13.96875 Z M 1.578125 -14.765625 C 2.347656 -17.441406 2.101562 -19.726562 0.84375 -21.625 C -0.414062 -23.53125 -2.847656 -25 -6.453125 -26.03125 C -10.066406 -27.050781 -12.910156 -27.082031 -14.984375 -26.125 C -17.054688 -25.175781 -18.476562 -23.363281 -19.25 -20.6875 C -20.8125 -15.164062 -18.117188 -11.421875 -11.171875 -9.453125 C -4.234375 -7.472656 0.015625 -9.242188 1.578125 -14.765625 Z M 1.578125 -14.765625 "/></g></g></g><g fill="#ffffff" fill-opacity="1"><g transform="translate(61.486245, 182.02325)"><g><path d="M 6.328125 -12.234375 C 4.910156 -9.285156 3.085938 -7.414062 0.859375 -6.625 C -1.367188 -5.832031 -3.957031 -6.144531 -6.90625 -7.5625 L -22.390625 -15.015625 L -21.03125 -17.828125 L -5.578125 -10.390625 C -3.472656 -9.367188 -1.648438 -9.113281 -0.109375 -9.625 C 1.429688 -10.132812 2.703125 -11.425781 3.703125 -13.5 C 5.679688 -17.59375 4.5625 -20.65625 0.34375 -22.6875 L -15.109375 -30.125 L -13.75 -32.953125 L 1.734375 -25.5 C 4.679688 -24.082031 6.539062 -22.253906 7.3125 -20.015625 C 8.082031 -17.773438 7.753906 -15.179688 6.328125 -12.234375 Z M 6.328125 -12.234375 "/></g></g></g><g fill="#ffffff" fill-opacity="1"><g transform="translate(78.18644, 149.097643)"><g><path d="M 4.125 -5.796875 L 2.34375 -3.28125 L -19.390625 -18.765625 L -17.15625 -21.90625 L 7 -20.6875 L 7.203125 -21.109375 L -9.34375 -32.890625 L -7.578125 -35.359375 L 14.15625 -19.875 L 12.25 -17.203125 L -13.375 -18.8125 L -13.59375 -18.40625 Z M 4.125 -5.796875 "/></g></g></g><g fill="#ffffff" fill-opacity="1"><g transform="translate(100.787156, 118.74593)"><g><path d="M -9.78125 -27.890625 C -7.863281 -29.785156 -5.875 -31.070312 -3.8125 -31.75 C -1.75 -32.425781 0.347656 -32.425781 2.484375 -31.75 C 4.628906 -31.082031 6.757812 -29.6875 8.875 -27.5625 C 10.976562 -25.4375 12.351562 -23.296875 13 -21.140625 C 13.644531 -18.992188 13.617188 -16.894531 12.921875 -14.84375 C 12.222656 -12.789062 10.914062 -10.816406 9 -8.921875 L 2.859375 -2.84375 L -15.921875 -21.8125 Z M 6.90625 -10.609375 C 8.488281 -12.171875 9.550781 -13.707031 10.09375 -15.21875 C 10.644531 -16.738281 10.632812 -18.320312 10.0625 -19.96875 C 9.5 -21.613281 8.304688 -23.359375 6.484375 -25.203125 C 4.648438 -27.046875 2.914062 -28.257812 1.28125 -28.84375 C -0.351562 -29.425781 -1.929688 -29.453125 -3.453125 -28.921875 C -4.984375 -28.390625 -6.539062 -27.34375 -8.125 -25.78125 L -11.8125 -22.125 L 3.21875 -6.953125 Z M 6.90625 -10.609375 "/></g></g></g><g fill="#ffffff" fill-opacity="1"><g transform="translate(128.403236, 92.792097)"><g><path d="M -1.5 -14.390625 L 4.3125 -6.28125 L 15.375 -14.203125 L 16.890625 -12.09375 L 3.28125 -2.34375 L -12.25 -24.046875 L 1.125 -33.625 L 2.625 -31.515625 L -8.203125 -23.765625 L -3 -16.5 L 6.5625 -23.34375 L 8.0625 -21.234375 Z M -1.5 -14.390625 "/></g></g></g><g fill="#ffffff" fill-opacity="1"><g transform="translate(154.948268, 74.579972)"><g><path d="M 3.59375 -1.828125 L -8.5 -25.625 L 0.15625 -30.015625 C 1.738281 -30.828125 3.207031 -31.242188 4.5625 -31.265625 C 5.914062 -31.296875 7.109375 -30.96875 8.140625 -30.28125 C 9.171875 -29.59375 10.019531 -28.597656 10.6875 -27.296875 C 11.4375 -25.816406 11.6875 -24.40625 11.4375 -23.0625 C 11.1875 -21.726562 10.398438 -20.429688 9.078125 -19.171875 L 9.25 -18.828125 C 10.175781 -18.898438 11.050781 -18.734375 11.875 -18.328125 C 12.695312 -17.929688 13.640625 -17.191406 14.703125 -16.109375 L 20.390625 -10.359375 L 17.515625 -8.90625 L 11.4375 -14.96875 C 10.707031 -15.6875 10.035156 -16.195312 9.421875 -16.5 C 8.816406 -16.800781 8.171875 -16.914062 7.484375 -16.84375 C 6.804688 -16.769531 6.035156 -16.515625 5.171875 -16.078125 L 0.953125 -13.9375 L 6.390625 -3.25 Z M 5.53125 -19.234375 C 7.019531 -19.992188 7.953125 -20.898438 8.328125 -21.953125 C 8.710938 -23.015625 8.546875 -24.253906 7.828125 -25.671875 C 7.117188 -27.078125 6.222656 -27.941406 5.140625 -28.265625 C 4.054688 -28.585938 2.769531 -28.367188 1.28125 -27.609375 L -4.5 -24.671875 L -0.25 -16.296875 Z M 5.53125 -19.234375 "/></g></g></g><g fill="#ffffff" fill-opacity="1"><g transform="translate(185.921086, 59.733487)"><g><path d="M 11.203125 -3.28125 C 9.609375 -2.75 8.101562 -2.492188 6.6875 -2.515625 C 5.28125 -2.535156 4.039062 -2.757812 2.96875 -3.1875 C 1.894531 -3.625 1.007812 -4.191406 0.3125 -4.890625 L 1.296875 -7.40625 L 1.71875 -7.546875 C 4.164062 -5.421875 7.03125 -4.898438 10.3125 -5.984375 C 12.21875 -6.609375 13.503906 -7.472656 14.171875 -8.578125 C 14.835938 -9.679688 14.9375 -10.945312 14.46875 -12.375 C 14.195312 -13.207031 13.8125 -13.863281 13.3125 -14.34375 C 12.8125 -14.820312 12.144531 -15.144531 11.3125 -15.3125 C 10.476562 -15.488281 9.398438 -15.523438 8.078125 -15.421875 L 4.890625 -15.1875 C 2.492188 -14.988281 0.582031 -15.296875 -0.84375 -16.109375 C -2.269531 -16.929688 -3.273438 -18.226562 -3.859375 -20 C -4.273438 -21.269531 -4.320312 -22.503906 -4 -23.703125 C -3.675781 -24.898438 -2.984375 -25.984375 -1.921875 -26.953125 C -0.867188 -27.921875 0.523438 -28.691406 2.265625 -29.265625 C 4.171875 -29.890625 5.867188 -30.144531 7.359375 -30.03125 C 8.859375 -29.925781 10.179688 -29.46875 11.328125 -28.65625 L 10.5 -26.203125 L 10.078125 -26.0625 C 9.054688 -26.71875 7.976562 -27.09375 6.84375 -27.1875 C 5.707031 -27.28125 4.46875 -27.109375 3.125 -26.671875 C 1.363281 -26.085938 0.148438 -25.304688 -0.515625 -24.328125 C -1.179688 -23.359375 -1.3125 -22.269531 -0.90625 -21.0625 C -0.53125 -19.914062 0.09375 -19.109375 0.96875 -18.640625 C 1.851562 -18.179688 3.132812 -18.023438 4.8125 -18.171875 L 8.09375 -18.453125 C 10.738281 -18.691406 12.8125 -18.390625 14.3125 -17.546875 C 15.8125 -16.710938 16.867188 -15.363281 17.484375 -13.5 C 17.953125 -12.070312 18.046875 -10.703125 17.765625 -9.390625 C 17.492188 -8.078125 16.804688 -6.882812 15.703125 -5.8125 C 14.609375 -4.75 13.109375 -3.90625 11.203125 -3.28125 Z M 11.203125 -3.28125 "/></g></g></g><g fill="#ffffff" fill-opacity="1"><g transform="translate(217.492084, 50.382805)"><g/></g></g><g fill="#ffffff" fill-opacity="1"><g transform="translate(236.662568, 46.897733)"><g><path d="M 11.0625 -12.78125 L 0.734375 -11.75 L 0.46875 -14.40625 L 10.796875 -15.4375 Z M 11.0625 -12.78125 "/></g></g></g><g fill="#ffffff" fill-opacity="1"><g transform="translate(261.074773, 45.09348)"><g/></g></g><g fill="#ffffff" fill-opacity="1"><g transform="translate(280.351992, 45.314199)"><g><path d="M 23.78125 -24.078125 L 23.46875 -21.453125 L 15.171875 -22.421875 L 12.390625 1.453125 L 9.28125 1.078125 L 12.0625 -22.796875 L 3.765625 -23.765625 L 4.078125 -26.390625 Z M 23.78125 -24.078125 "/></g></g></g><g fill="#ffffff" fill-opacity="1"><g transform="translate(311.528312, 49.573126)"><g><path d="M 3.890625 1.0625 L 10.90625 -24.6875 L 20.265625 -22.140625 C 21.984375 -21.671875 23.351562 -20.992188 24.375 -20.109375 C 25.394531 -19.222656 26.054688 -18.175781 26.359375 -16.96875 C 26.671875 -15.769531 26.632812 -14.460938 26.25 -13.046875 C 25.8125 -11.453125 25.046875 -10.242188 23.953125 -9.421875 C 22.867188 -8.597656 21.414062 -8.160156 19.59375 -8.109375 L 19.484375 -7.734375 C 20.234375 -7.171875 20.773438 -6.460938 21.109375 -5.609375 C 21.453125 -4.765625 21.65625 -3.585938 21.71875 -2.078125 L 22.078125 6.015625 L 18.953125 5.15625 L 18.53125 -3.40625 C 18.476562 -4.425781 18.320312 -5.253906 18.0625 -5.890625 C 17.8125 -6.523438 17.410156 -7.039062 16.859375 -7.4375 C 16.304688 -7.84375 15.5625 -8.175781 14.625 -8.4375 L 10.0625 -9.671875 L 6.921875 1.890625 Z M 17.015625 -10.53125 C 18.628906 -10.09375 19.929688 -10.140625 20.921875 -10.671875 C 21.910156 -11.203125 22.613281 -12.234375 23.03125 -13.765625 C 23.445312 -15.285156 23.363281 -16.523438 22.78125 -17.484375 C 22.195312 -18.453125 21.097656 -19.15625 19.484375 -19.59375 L 13.234375 -21.296875 L 10.765625 -12.234375 Z M 17.015625 -10.53125 "/></g></g></g><g fill="#ffffff" fill-opacity="1"><g transform="translate(344.378475, 59.197464)"><g><path d="M 12.375 6.0625 C 9.394531 4.707031 7.484375 2.921875 6.640625 0.703125 C 5.796875 -1.503906 6.050781 -4.09375 7.40625 -7.0625 L 14.53125 -22.703125 L 17.375 -21.40625 L 10.265625 -5.796875 C 9.296875 -3.671875 9.082031 -1.84375 9.625 -0.3125 C 10.164062 1.21875 11.484375 2.457031 13.578125 3.40625 C 17.710938 5.300781 20.75 4.125 22.6875 -0.125 L 29.796875 -15.734375 L 32.640625 -14.4375 L 25.515625 1.203125 C 24.160156 4.171875 22.375 6.0625 20.15625 6.875 C 17.9375 7.695312 15.34375 7.425781 12.375 6.0625 Z M 12.375 6.0625 "/></g></g></g><g fill="#ffffff" fill-opacity="1"><g transform="translate(377.698309, 75.415365)"><g><path d="M 9.515625 6.78125 C 8.109375 5.84375 6.976562 4.8125 6.125 3.6875 C 5.269531 2.570312 4.675781 1.457031 4.34375 0.34375 C 4.019531 -0.757812 3.921875 -1.800781 4.046875 -2.78125 L 6.609375 -3.5625 L 6.984375 -3.3125 C 6.835938 -0.0820312 8.207031 2.488281 11.09375 4.40625 C 12.757812 5.507812 14.234375 5.984375 15.515625 5.828125 C 16.796875 5.671875 17.847656 4.96875 18.671875 3.71875 C 19.160156 2.988281 19.4375 2.28125 19.5 1.59375 C 19.5625 0.90625 19.398438 0.179688 19.015625 -0.578125 C 18.640625 -1.347656 18.007812 -2.222656 17.125 -3.203125 L 14.953125 -5.5625 C 13.316406 -7.320312 12.378906 -9.007812 12.140625 -10.625 C 11.898438 -12.25 12.296875 -13.84375 13.328125 -15.40625 C 14.054688 -16.507812 14.992188 -17.304688 16.140625 -17.796875 C 17.296875 -18.296875 18.582031 -18.425781 20 -18.1875 C 21.414062 -17.945312 22.878906 -17.320312 24.390625 -16.3125 C 26.066406 -15.195312 27.320312 -14.019531 28.15625 -12.78125 C 28.988281 -11.550781 29.441406 -10.238281 29.515625 -8.84375 L 27.09375 -7.96875 L 26.71875 -8.21875 C 26.59375 -9.425781 26.21875 -10.5 25.59375 -11.4375 C 24.96875 -12.382812 24.0625 -13.25 22.875 -14.03125 C 21.34375 -15.050781 19.984375 -15.519531 18.796875 -15.4375 C 17.617188 -15.363281 16.675781 -14.800781 15.96875 -13.75 C 15.300781 -12.738281 15.0625 -11.742188 15.25 -10.765625 C 15.4375 -9.796875 16.109375 -8.691406 17.265625 -7.453125 L 19.5 -5.046875 C 21.320312 -3.117188 22.367188 -1.304688 22.640625 0.390625 C 22.910156 2.085938 22.503906 3.75 21.421875 5.375 C 20.585938 6.632812 19.566406 7.5625 18.359375 8.15625 C 17.160156 8.75 15.800781 8.941406 14.28125 8.734375 C 12.769531 8.535156 11.179688 7.882812 9.515625 6.78125 Z M 9.515625 6.78125 "/></g></g></g><g fill="#ffffff" fill-opacity="1"><g transform="translate(404.43676, 94.040118)"><g><path d="M 33.3125 -5.953125 L 31.546875 -3.984375 L 25.328125 -9.5625 L 9.28125 8.328125 L 6.953125 6.234375 L 23 -11.65625 L 16.78125 -17.234375 L 18.546875 -19.203125 Z M 33.3125 -5.953125 "/></g></g></g><g fill="#ffffff" fill-opacity="1"><g transform="translate(427.444233, 115.586522)"><g><path d="M 14.25 -2.53125 L 6.59375 3.859375 L 15.296875 14.3125 L 13.296875 15.96875 L 2.578125 3.09375 L 23.078125 -13.984375 L 33.609375 -1.34375 L 31.625 0.3125 L 23.109375 -9.90625 L 16.25 -4.203125 L 23.765625 4.8125 L 21.765625 6.484375 Z M 14.25 -2.53125 "/></g></g></g><g fill="#ffffff" fill-opacity="1"><g transform="translate(447.587996, 140.580668)"><g><path d="M 29.421875 -2.734375 C 30.796875 -0.410156 31.5625 1.832031 31.71875 4 C 31.882812 6.164062 31.382812 8.203125 30.21875 10.109375 C 29.050781 12.023438 27.175781 13.75 24.59375 15.28125 C 22.03125 16.8125 19.625 17.628906 17.375 17.734375 C 15.132812 17.847656 13.097656 17.316406 11.265625 16.140625 C 9.441406 14.960938 7.84375 13.210938 6.46875 10.890625 L 2.0625 3.46875 L 25.015625 -10.15625 Z M 8.609375 9.265625 C 9.742188 11.179688 10.976562 12.585938 12.3125 13.484375 C 13.65625 14.390625 15.191406 14.765625 16.921875 14.609375 C 18.660156 14.460938 20.644531 13.726562 22.875 12.40625 C 25.113281 11.070312 26.710938 9.679688 27.671875 8.234375 C 28.628906 6.785156 29.035156 5.253906 28.890625 3.640625 C 28.742188 2.035156 28.101562 0.273438 26.96875 -1.640625 L 24.3125 -6.09375 L 5.953125 4.8125 Z M 8.609375 9.265625 "/></g></g></g><g fill="#ffffff" fill-opacity="1"><g transform="translate(466.015409, 174.104707)"><g/></g></g><g fill="#ffffff" fill-opacity="1"><g transform="translate(473.480105, 191.76947)"><g><path d="M 1.125 3.875 L 26.765625 -3.515625 L 29.5625 6.203125 C 30.019531 7.773438 30.15625 9.179688 29.96875 10.421875 C 29.789062 11.671875 29.3125 12.707031 28.53125 13.53125 C 27.757812 14.351562 26.726562 14.953125 25.4375 15.328125 C 24.332031 15.640625 23.242188 15.625 22.171875 15.28125 C 21.109375 14.945312 20.160156 14.289062 19.328125 13.3125 L 18.96875 13.421875 C 19.03125 15.242188 18.632812 16.753906 17.78125 17.953125 C 16.925781 19.160156 15.65625 20.007812 13.96875 20.5 C 11.582031 21.1875 9.546875 21.015625 7.859375 19.984375 C 6.171875 18.960938 4.929688 17.082031 4.140625 14.34375 Z M 18.75 9.15625 C 19.164062 10.570312 19.851562 11.5625 20.8125 12.125 C 21.78125 12.695312 22.914062 12.796875 24.21875 12.421875 C 25.59375 12.023438 26.507812 11.351562 26.96875 10.40625 C 27.4375 9.457031 27.457031 8.25 27.03125 6.78125 L 25.140625 0.21875 L 16.859375 2.59375 Z M 6.546875 13.375 C 7.597656 17.03125 9.773438 18.382812 13.078125 17.4375 C 16.378906 16.476562 17.503906 14.171875 16.453125 10.515625 L 14.375 3.3125 L 4.46875 6.171875 Z M 6.546875 13.375 "/></g></g></g><g fill="#ffffff" fill-opacity="1"><g transform="translate(482.439876, 225.901238)"><g><path d="M 1.640625 12.921875 L 1.25 9.828125 L 11.65625 8.5 L 26.5625 -2.6875 L 26.984375 0.71875 L 15.515625 9.421875 L 15.5625 9.890625 L 28.859375 15.390625 L 29.28125 18.734375 L 12.046875 11.59375 Z M 1.640625 12.921875 "/></g></g></g><g fill="#ffffff" fill-opacity="1"><g transform="translate(485.615841, 258.741156)"><g/></g></g><g fill="#ffffff" fill-opacity="1"><g transform="translate(485.533698, 278.036063)"><g><path d="M 24.421875 22.453125 L 21.84375 22.171875 L 23.1875 9.6875 L 13.546875 8.65625 L 12.34375 19.875 L 9.75 19.59375 L 10.953125 8.375 L -0.765625 7.125 L -0.4375 4.015625 L 26.09375 6.859375 Z M 24.421875 22.453125 "/></g></g></g><g fill="#ffffff" fill-opacity="1"><g transform="translate(481.82102, 308.545509)"><g><path d="M -4.203125 14.015625 C -3.597656 11.785156 -2.578125 9.929688 -1.140625 8.453125 C 0.285156 6.984375 2.125 6.019531 4.375 5.5625 C 6.625 5.101562 9.222656 5.273438 12.171875 6.078125 C 15.117188 6.867188 17.445312 8.03125 19.15625 9.5625 C 20.863281 11.09375 21.96875 12.859375 22.46875 14.859375 C 22.96875 16.867188 22.914062 18.988281 22.3125 21.21875 C 21.707031 23.457031 20.679688 25.3125 19.234375 26.78125 C 17.796875 28.257812 15.953125 29.226562 13.703125 29.6875 C 11.453125 30.15625 8.851562 29.992188 5.90625 29.203125 C 2.957031 28.398438 0.628906 27.226562 -1.078125 25.6875 C -2.785156 24.15625 -3.882812 22.382812 -4.375 20.375 C -4.863281 18.375 -4.804688 16.253906 -4.203125 14.015625 Z M -1.40625 14.78125 C -2.132812 17.46875 -1.851562 19.753906 -0.5625 21.640625 C 0.71875 23.523438 3.164062 24.960938 6.78125 25.953125 C 10.40625 26.929688 13.25 26.929688 15.3125 25.953125 C 17.375 24.972656 18.769531 23.140625 19.5 20.453125 C 21 14.921875 18.265625 11.210938 11.296875 9.328125 C 4.328125 7.429688 0.09375 9.25 -1.40625 14.78125 Z M -1.40625 14.78125 "/></g></g></g><g fill="#ffffff" fill-opacity="1"><g transform="translate(470.856173, 345.614737)"><g><path d="M -6.171875 12.296875 C -4.796875 9.335938 -3 7.445312 -0.78125 6.625 C 1.4375 5.800781 4.03125 6.082031 7 7.46875 L 22.578125 14.734375 L 21.25 17.5625 L 5.703125 10.3125 C 3.585938 9.320312 1.757812 9.085938 0.21875 9.609375 C -1.3125 10.140625 -2.5625 11.445312 -3.53125 13.53125 C -5.457031 17.65625 -4.300781 20.707031 -0.0625 22.6875 L 15.484375 29.9375 L 14.15625 32.78125 L -1.421875 25.515625 C -4.390625 24.128906 -6.269531 22.320312 -7.0625 20.09375 C -7.851562 17.863281 -7.554688 15.265625 -6.171875 12.296875 Z M -6.171875 12.296875 "/></g></g></g><g fill="#ffffff" fill-opacity="1"><g transform="translate(454.565143, 378.745388)"><g><path d="M -4.046875 5.84375 L -2.296875 3.3125 L 19.640625 18.515625 L 17.4375 21.6875 L -6.734375 20.78125 L -6.9375 21.171875 L 9.765625 32.75 L 8.03125 35.265625 L -13.90625 20.0625 L -12.03125 17.359375 L 13.609375 18.640625 L 13.828125 18.234375 Z M -4.046875 5.84375 "/></g></g></g><g fill="#ffffff" fill-opacity="1"><g transform="translate(432.341054, 409.375675)"><g><path d="M 10.125 27.765625 C 8.226562 29.679688 6.25 30.988281 4.1875 31.6875 C 2.132812 32.394531 0.0390625 32.425781 -2.09375 31.78125 C -4.238281 31.144531 -6.382812 29.773438 -8.53125 27.671875 C -10.65625 25.578125 -12.054688 23.457031 -12.734375 21.3125 C -13.410156 19.175781 -13.410156 17.070312 -12.734375 15 C -12.066406 12.9375 -10.785156 10.945312 -8.890625 9.03125 L -2.828125 2.875 L 16.1875 21.609375 Z M -6.765625 10.671875 C -8.328125 12.265625 -9.375 13.820312 -9.90625 15.34375 C -10.4375 16.863281 -10.410156 18.445312 -9.828125 20.09375 C -9.242188 21.738281 -8.03125 23.46875 -6.1875 25.28125 C -4.332031 27.113281 -2.582031 28.304688 -0.9375 28.859375 C 0.707031 29.410156 2.289062 29.410156 3.8125 28.859375 C 5.34375 28.316406 6.890625 27.25 8.453125 25.65625 L 12.09375 21.96875 L -3.125 6.984375 Z M -6.765625 10.671875 "/></g></g></g><g fill="#ffffff" fill-opacity="1"><g transform="translate(405.045782, 435.670793)"><g><path d="M 1.671875 14.390625 L -4.25 6.34375 L -15.21875 14.40625 L -16.75 12.3125 L -3.25 2.390625 L 12.5625 23.890625 L -0.6875 33.625 L -2.234375 31.53125 L 8.484375 23.65625 L 3.203125 16.46875 L -6.265625 23.421875 L -7.796875 21.34375 Z M 1.671875 14.390625 "/></g></g></g><g fill="#ffffff" fill-opacity="1"><g transform="translate(378.733269, 454.211401)"><g><path d="M -3.578125 1.875 L 8.8125 25.515625 L 0.21875 30.015625 C -1.351562 30.835938 -2.816406 31.269531 -4.171875 31.3125 C -5.523438 31.363281 -6.722656 31.050781 -7.765625 30.375 C -8.804688 29.695312 -9.664062 28.710938 -10.34375 27.421875 C -11.113281 25.953125 -11.378906 24.546875 -11.140625 23.203125 C -10.910156 21.867188 -10.144531 20.5625 -8.84375 19.28125 L -9.015625 18.9375 C -9.953125 19.03125 -10.832031 18.878906 -11.65625 18.484375 C -12.476562 18.097656 -13.425781 17.367188 -14.5 16.296875 L -20.265625 10.625 L -17.390625 9.109375 L -11.265625 15.109375 C -10.523438 15.816406 -9.84375 16.316406 -9.21875 16.609375 C -8.601562 16.910156 -7.957031 17.019531 -7.28125 16.9375 C -6.601562 16.851562 -5.835938 16.585938 -4.984375 16.140625 L -0.796875 13.9375 L -6.359375 3.328125 Z M -5.296875 19.3125 C -6.773438 20.082031 -7.695312 21 -8.0625 22.0625 C -8.425781 23.125 -8.242188 24.359375 -7.515625 25.765625 C -6.773438 27.160156 -5.863281 28.007812 -4.78125 28.3125 C -3.695312 28.625 -2.414062 28.394531 -0.9375 27.625 L 4.796875 24.609375 L 0.4375 16.296875 Z M -5.296875 19.3125 "/></g></g></g><g fill="#ffffff" fill-opacity="1"><g transform="translate(347.942282, 469.441827)"><g><path d="M -11.15625 3.421875 C -9.5625 2.867188 -8.0625 2.59375 -6.65625 2.59375 C -5.257812 2.601562 -4.015625 2.816406 -2.921875 3.234375 C -1.835938 3.648438 -0.945312 4.203125 -0.25 4.890625 L -1.203125 7.421875 L -1.625 7.5625 C -4.09375 5.46875 -6.960938 4.984375 -10.234375 6.109375 C -12.128906 6.753906 -13.40625 7.632812 -14.0625 8.75 C -14.726562 9.863281 -14.816406 11.128906 -14.328125 12.546875 C -14.046875 13.367188 -13.648438 14.015625 -13.140625 14.484375 C -12.640625 14.960938 -11.96875 15.285156 -11.125 15.453125 C -10.28125 15.617188 -9.203125 15.644531 -7.890625 15.53125 L -4.6875 15.234375 C -2.300781 15.003906 -0.390625 15.289062 1.046875 16.09375 C 2.484375 16.90625 3.503906 18.191406 4.109375 19.953125 C 4.546875 21.210938 4.609375 22.441406 4.296875 23.640625 C 3.992188 24.847656 3.316406 25.941406 2.265625 26.921875 C 1.210938 27.898438 -0.175781 28.6875 -1.90625 29.28125 C -3.800781 29.9375 -5.492188 30.21875 -6.984375 30.125 C -8.472656 30.039062 -9.800781 29.597656 -10.96875 28.796875 L -10.1875 26.34375 L -9.75 26.203125 C -8.71875 26.835938 -7.632812 27.191406 -6.5 27.265625 C -5.363281 27.335938 -4.128906 27.144531 -2.796875 26.6875 C -1.046875 26.09375 0.15625 25.300781 0.8125 24.3125 C 1.46875 23.332031 1.59375 22.242188 1.1875 21.046875 C 0.789062 19.898438 0.148438 19.101562 -0.734375 18.65625 C -1.617188 18.207031 -2.90625 18.0625 -4.59375 18.21875 L -7.84375 18.546875 C -10.5 18.816406 -12.582031 18.539062 -14.09375 17.71875 C -15.601562 16.90625 -16.675781 15.570312 -17.3125 13.71875 C -17.800781 12.289062 -17.914062 10.914062 -17.65625 9.59375 C -17.40625 8.28125 -16.734375 7.082031 -15.640625 6 C -14.546875 4.925781 -13.050781 4.066406 -11.15625 3.421875 Z M -11.15625 3.421875 "/></g></g></g><g fill="#ffffff" fill-opacity="1"><g transform="translate(316.497063, 479.184178)"><g/></g></g><g fill="#ffffff" fill-opacity="1"><g transform="translate(297.366025, 482.907284)"><g><path d="M -10.90625 12.921875 L -0.59375 11.765625 L -0.28125 14.421875 L -10.59375 15.578125 Z M -10.90625 12.921875 "/></g></g></g></svg>